<?xml version="1.0" encoding="UTF-8" standalone="no"?>
<!-- Created with Inkscape (http://www.inkscape.org/) -->

<svg
   xmlns:dc="http://purl.org/dc/elements/1.1/"
   xmlns:cc="http://creativecommons.org/ns#"
   xmlns:rdf="http://www.w3.org/1999/02/22-rdf-syntax-ns#"
   xmlns:svg="http://www.w3.org/2000/svg"
   xmlns="http://www.w3.org/2000/svg"
   xmlns:sodipodi="http://sodipodi.sourceforge.net/DTD/sodipodi-0.dtd"
   xmlns:inkscape="http://www.inkscape.org/namespaces/inkscape"
   width="57.628704mm"
   height="6.1039963mm"
   viewBox="0 0 204.1962 21.628333"
   id="svg2"
   version="1.1"
   inkscape:version="0.91 r13725"
   sodipodi:docname="fleche.svg">
  <defs
     id="defs4" />
  <sodipodi:namedview
     id="base"
     pagecolor="#ffffff"
     bordercolor="#666666"
     borderopacity="1.0"
     inkscape:pageopacity="0.0"
     inkscape:pageshadow="2"
     inkscape:zoom="3.2388619"
     inkscape:cx="99.19613"
     inkscape:cy="-14.675489"
     inkscape:document-units="px"
     inkscape:current-layer="layer1"
     showgrid="false"
     inkscape:window-width="1280"
     inkscape:window-height="755"
     inkscape:window-x="0"
     inkscape:window-y="1"
     inkscape:window-maximized="1"
     fit-margin-top="0"
     fit-margin-left="0"
     fit-margin-right="0"
     fit-margin-bottom="0" />
  <metadata
     id="metadata7">
    <rdf:RDF>
      <cc:Work
         rdf:about="">
        <dc:format>image/svg+xml</dc:format>
        <dc:type
           rdf:resource="http://purl.org/dc/dcmitype/StillImage" />
        <dc:title></dc:title>
      </cc:Work>
    </rdf:RDF>
  </metadata>
  <g
     inkscape:label="Calque 1"
     inkscape:groupmode="layer"
     id="layer1"
     transform="translate(-400.0854,-324.82869)">
    <path
       style="fill:#000000"
       d="m 452.93162,345.40466 c 1.925,-0.54522 4.49931,-1.92068 5.72068,-3.05658 1.78971,-1.66446 2.50537,-1.82901 3.68758,-0.84787 1.69176,1.40404 10.22066,0.51728 12.50351,-1.3 0.94369,-0.75124 8.40368,-1.12565 22.5,-1.12927 11.59853,-0.003 36.27573,-0.40977 54.83823,-0.90397 18.5625,-0.49421 33.75,-0.58193 33.75,-0.19493 0,0.387 -0.70818,2.0731 -1.57374,3.7469 -0.86555,1.6738 -1.4055,3.2115 -1.19989,3.41711 0.47725,0.47725 19.82954,-8.21561 21.08521,-9.47128 0.87428,-0.87428 -13.41336,-8.76797 -19.0295,-10.51349 -2.10251,-0.65347 -2.16154,-0.52759 -1.13438,2.41891 0.59595,1.70954 0.7674,3.42278 0.38101,3.80721 -0.38639,0.38442 -11.35092,0.70487 -24.36562,0.7121 -13.0147,0.007 -36.99052,0.41592 -53.27961,0.90821 -16.28908,0.49228 -30.46408,0.53937 -31.5,0.10463 -2.8536,-1.19756 -10.48731,-1.56727 -12.2295,-0.59229 -1.10032,0.61577 -2.27433,0.0785 -4.10083,-1.8768 l -2.55915,-2.73958 -18.82071,-0.71755 -18.82071,-0.71755 -9.3494,4.38828 -9.3494,4.38828 5.44526,2.67061 c 2.9949,1.46884 6.1103,2.67061 6.92311,2.67061 0.81282,0 1.47785,0.41968 1.47785,0.93261 0,1.24134 2.25649,1.8935 12.17521,3.51885 7.24386,1.18702 8.47463,1.17358 9.47879,-0.1035 0.82804,-1.05309 1.35422,-1.14367 1.86286,-0.32068 0.38987,0.63082 1.55762,0.925 2.595,0.65372 1.03738,-0.27128 2.13815,-0.0855 2.44616,0.41288 0.71153,1.15127 5.906,1.01917 10.44198,-0.26557 z m -7,-1.70331 c 0,-0.48125 0.28125,-2.28125 0.625,-4 0.57097,-2.85484 0.96,-3.125 4.5,-3.125 2.13125,0 3.875,0.20973 3.875,0.46607 0,0.25634 -0.75835,2.05634 -1.68521,4 -1.33957,2.80912 -2.26253,3.53393 -4.5,3.53393 -1.54814,0 -2.81479,-0.39375 -2.81479,-0.875 z m -8,-1.625 c 0,-1.375 -0.40122,-2.5 -0.89159,-2.5 -0.49038,0 -1.17395,1.125 -1.51905,2.5 -0.49763,1.9827 -1.25823,2.5 -3.6758,2.5 -2.43457,0 -2.94366,-0.35235 -2.52844,-1.75 0.28595,-0.9625 0.82876,-3.04211 1.20626,-4.62136 0.67917,-2.84131 0.74455,-2.86452 6.24625,-2.2179 3.05794,0.3594 5.72663,0.82019 5.93042,1.02398 0.20379,0.20379 -0.0778,1.20184 -0.62576,2.2179 -0.54796,1.01606 -1.24002,2.63488 -1.53791,3.59738 -0.81182,2.62308 -2.60438,2.10686 -2.60438,-0.75 z m 16.70139,-2 c 1.19756,-2.5113 2.32293,-3.5 3.98382,-3.5 3.14822,0 2.93718,2.36884 -0.43521,4.88491 -4.28478,3.1968 -5.50617,2.72013 -3.54861,-1.38491 z m -27.24992,0.25 0.61038,-3.25 -1.48265,3.25 c -1.4392,3.15476 -3.77585,4.09539 -6.17228,2.48469 -0.77678,-0.5221 -0.69896,-1.6865 0.26895,-4.02408 1.24763,-3.01314 1.69635,-3.26967 5.34307,-3.05449 4.42266,0.26095 4.4266,0.26736 2.88323,4.69466 -1.42718,4.09402 -2.22807,4.03838 -1.4507,-0.10078 z m 37.27986,-3.75 -0.41126,-3.5 -0.16003,3.80902 c -0.17248,4.10503 -2.16004,4.28077 -2.16004,0.19098 0,-3.13554 1.51632,-3.97971 7.25,-4.03626 4.59514,-0.0453 5.90911,0.70186 3.66897,2.08634 -0.59456,0.36746 -0.8353,1.64717 -0.53496,2.8438 0.43907,1.74938 0.0768,2.21453 -1.84892,2.37391 -1.5427,0.12767 -2.55657,-0.4185 -2.84904,-1.53479 -0.30878,-1.17856 -0.49116,-0.94916 -0.57005,0.717 -0.1646,3.47655 -1.87869,1.35611 -2.38467,-2.95 z m 5.76867,0 c 0,-1.54496 -0.3375,-2.60043 -0.75,-2.34549 -0.4125,0.25494 -0.75,1.31041 -0.75,2.34549 0,1.03508 0.3375,2.09055 0.75,2.34549 0.4125,0.25494 0.75,-0.80053 0.75,-2.34549 z m -2.57895,-1.58333 c -0.048,-1.16495 -0.28494,-1.4019 -0.60416,-0.60417 -0.28887,0.72187 -0.25335,1.58438 0.0789,1.91667 0.33229,0.33229 0.56864,-0.25834 0.52522,-1.3125 z m -53.90551,3.8057 c -1.46257,0.91339 -2.7067,0.76971 -5.93309,-0.68519 -2.24535,-1.01251 -4.08245,-2.13045 -4.08245,-2.48431 0,-0.82948 12.11129,-7.05377 13.72432,-7.05326 0.67338,2.2e-4 1.92243,1.35039 2.77568,3.00039 1.29543,2.50508 1.31978,3 0.14765,3 -0.77204,0 -2.10177,-1.0125 -2.95495,-2.25 -1.54822,-2.24562 -1.55022,-2.24577 -1.02515,-0.0758 0.43236,1.78686 0.0189,2.25012 -2.32073,2.60016 -2.76975,0.41441 -2.75884,0.42999 0.40318,0.57577 3.36953,0.15534 3.74639,0.72416 2.52954,3.81804 -0.65724,1.67107 -0.75085,1.68117 -1.0669,0.1151 -0.28387,-1.40658 -0.68076,-1.50791 -2.1971,-0.56094 z m 59.25875,-1.89938 c -0.23063,-0.69189 5.39753,-1.27209 16.4375,-1.69454 9.23351,-0.35332 23.87571,-0.92179 32.53821,-1.26327 14.13763,-0.55732 15.75,-0.45423 15.75,1.00704 0,0.89535 -0.1125,1.72407 -0.25,1.84159 -0.24005,0.20518 -61.26436,1.40334 -63.1875,1.24064 -0.51562,-0.0436 -1.09532,-0.55278 -1.28821,-1.13146 z m 98.18459,-1.38939 c -0.94047,-1.52172 -0.73471,-1.58668 7.29112,-2.30161 6.80627,-0.6063 7.25,-0.52299 7.25,1.36116 0,1.81654 -0.65862,2.00698 -6.94098,2.00698 -3.83729,0 -7.23573,-0.4769 -7.60014,-1.06653 z m -2.14199,-1.12097 c 0.31922,-0.79773 0.55618,-0.56078 0.60416,0.60417 0.0434,1.05416 -0.19293,1.64479 -0.52522,1.3125 -0.33229,-0.33229 -0.36781,-1.1948 -0.0789,-1.91667 z m -4.31689,0.12848 c 0,-0.51754 0.675,-0.94098 1.5,-0.94098 1.54641,0 1.9867,1.17996 0.86052,2.30615 -0.79893,0.79893 -2.36052,-0.10419 -2.36052,-1.36517 z m -5,0 c 0,-0.51754 0.45,-0.94098 1,-0.94098 0.55,0 1,0.70156 1,1.55902 0,0.85746 -0.45,1.2809 -1,0.94098 -0.55,-0.33992 -1,-1.04148 -1,-1.55902 z m -7,-0.0494 c 0,-1.80035 0.40149,-2.00764 2.74795,-1.41871 3.56056,0.89364 4.02324,1.42773 2.22309,2.56618 -2.61312,1.65259 -4.97104,1.10831 -4.97104,-1.14747 z m -2.98469,0.85841 c -0.008,0.6875 -0.64217,1.25 -1.40832,1.25 -1.70158,0 -2.89215,-2.70573 -1.55437,-3.53252 1.63254,-1.00897 4.94826,0.57083 4.93207,2.34991 -0.0132,1.45184 -0.14826,1.47689 -0.98469,0.18261 -0.64625,-1 -0.97448,-1.08333 -0.98469,-0.25 z m -11.01531,-0.24999 c 0,-0.825 0.675,-1.5 1.5,-1.5 0.825,0 1.5,0.675 1.5,1.5 0,0.825 -0.675,1.5 -1.5,1.5 -0.825,0 -1.5,-0.675 -1.5,-1.5 z m -82.26992,-1.25 c -0.27674,-0.9625 -0.8557,-2.61132 -1.28657,-3.66404 -1.09345,-2.67162 0.90949,-1.30334 3.57802,2.44428 2.05743,2.88939 2.06185,2.96976 0.1632,2.96976 -1.07331,0 -2.1779,-0.7875 -2.45465,-1.75 z m -6.75803,-1.31749 c -0.78834,-1.90322 -1.54067,-2.6305 -1.98216,-1.91615 -0.49383,0.79903 -0.89754,0.66668 -1.31934,-0.43251 -0.45234,-1.17877 0.017,-1.58385 1.83515,-1.58385 1.69383,0 2.91078,0.90471 3.96862,2.95034 1.87379,3.62351 1.88926,4.04966 0.147,4.04966 -0.75827,0 -1.95045,-1.38037 -2.64927,-3.06749 z m -6.52287,-0.71554 c -1.15512,-2.74722 -1.14531,-3.21697 0.0672,-3.21697 0.78088,0 2.09114,1.2375 2.91169,2.75 0.82054,1.5125 1.50991,2.1125 1.53193,1.33333 0.022,-0.77916 0.32917,-1.12754 0.68254,-0.77416 0.84851,0.84851 -1.67182,3.84772 -2.89168,3.4411 -0.52195,-0.17398 -1.55769,-1.76397 -2.30164,-3.5333 z m -10.08535,1.28877 c -0.31537,-0.82184 -1.05272,-1.19802 -1.63855,-0.83595 -0.67798,0.41901 -0.82164,0.0237 -0.39522,-1.08753 0.36847,-0.96021 0.66994,-2.09663 0.66994,-2.52538 0,-1.80079 4.85652,0.3328 5.88235,2.58426 1.50559,3.30441 1.48267,3.35886 -1.41373,3.35886 -1.39227,0 -2.78942,-0.67242 -3.10479,-1.49426 z m -9.83815,-1.45608 c -0.83912,-1.62269 -1.52568,-3.23098 -1.52568,-3.57398 0,-1.25993 8.36083,0.10682 8.80501,1.43935 0.27326,0.81977 0.005,1.08572 -0.67226,0.66702 -0.8155,-0.50401 -0.85817,0.01 -0.15448,1.8608 0.90664,2.38464 0.77324,2.55715 -1.97734,2.55715 -2.25485,0 -3.30892,-0.6949 -4.47525,-2.95034 z"
       id="path4147"
       inkscape:connector-curvature="0"
       sodipodi:nodetypes="ssssssssssssscsssscccccssssssscsssssssssssssssssssssssscssssssscsssssssssssssscsccccsscssssssssccssssccssssssccsccssssssssssssscsssscssssssssssssssssscssccsccscsssssssscsss" />
    <flowRoot
       xml:space="preserve"
       id="flowRoot4149"
       style="font-style:normal;font-variant:normal;font-weight:normal;font-stretch:normal;font-size:27.5px;line-height:125%;font-family:'beer money';-inkscape-font-specification:'beer money';letter-spacing:0px;word-spacing:0px;fill:#ffffff;fill-opacity:1;stroke:none;stroke-width:1px;stroke-linecap:butt;stroke-linejoin:miter;stroke-opacity:1"
       transform="matrix(1.8020503,0,0,2.0193388,-386.58277,-392.89587)"><flowRegion
         id="flowRegion4151"><rect
           id="rect4153"
           width="91.390129"
           height="32.727547"
           x="479.79816"
           y="363.84875"
           style="font-style:normal;font-variant:normal;font-weight:normal;font-stretch:normal;font-size:27.5px;font-family:'beer money';-inkscape-font-specification:'beer money';fill:#ffffff" /></flowRegion><flowPara
         id="flowPara4155">HDP</flowPara></flowRoot>  </g>
</svg>
